<?xml version="1.0"?>
<svg xmlns="http://www.w3.org/2000/svg" xmlns:xlink="http://www.w3.org/1999/xlink" xmlns:svgjs="http://svgjs.com/svgjs" version="1.1" width="512" height="512" x="0" y="0" viewBox="0 0 64 64" style="enable-background:new 0 0 512 512" xml:space="preserve" class=""><g><path xmlns="http://www.w3.org/2000/svg" d="m17.692 58.648 18.908-37.825a4 4 0 0 1 7.156 0l18.917 37.825a3 3 0 0 1 -3.837 4.111l-18.653-7.772-18.654 7.772a3 3 0 0 1 -3.837-4.111z" fill="#3c91e6" data-original="#c4a2fc" style="" class=""/><g xmlns="http://www.w3.org/2000/svg" fill="#151a6a"><path d="m36 13h-9.552a15.609 15.609 0 0 0 .667-4.227 7.773 7.773 0 1 0 -15.546 0 15.635 15.635 0 0 0 .653 4.234l-5.032-.007a2 2 0 0 0 -1.414 3.415l29.81 29.813a2 2 0 0 0 3.414-1.415v-28.813a3 3 0 0 0 -3-3zm-16.657-10a5.78 5.78 0 0 1 5.772 5.773c0 5.644-4.374 11.557-5.772 12.833-1.4-1.275-5.774-7.188-5.774-12.833a5.78 5.78 0 0 1 5.774-5.773zm17.657 41.813-29.812-29.813 5.71.006c1.858 4.754 5.153 8.762 6.445 8.762 1.444 0 4.623-4.094 6.436-8.77h10.221a1 1 0 0 1 1 1z" fill="#263141" data-original="#151a6a" style="" class=""/><path d="m21.071 37.061a2.449 2.449 0 0 0 -3.458 0l-9.765 9.765a2.446 2.446 0 0 0 1.728 4.174h19.532a2.446 2.446 0 0 0 1.729-4.174zm8.037 11.939h-19.532a.444.444 0 0 1 -.314-.76l9.765-9.765a.446.446 0 0 1 .63 0l9.766 9.765a.444.444 0 0 1 -.315.76z" fill="#263141" data-original="#151a6a" style="" class=""/><path d="m14.939 30.929-9.765-9.766a2.446 2.446 0 0 0 -4.174 1.729v19.532a2.446 2.446 0 0 0 4.174 1.728l9.765-9.765a2.447 2.447 0 0 0 0-3.458zm-1.414 2.044-9.765 9.765a.444.444 0 0 1 -.76-.314v-19.532a.445.445 0 0 1 .76-.315l9.765 9.766a.445.445 0 0 1 0 .63z" fill="#263141" data-original="#151a6a" style="" class=""/><path d="m23.954 8.773a4.612 4.612 0 1 0 -4.611 4.612 4.616 4.616 0 0 0 4.611-4.612zm-7.224 0a2.612 2.612 0 1 1 2.613 2.612 2.616 2.616 0 0 1 -2.613-2.612z" fill="#263141" data-original="#151a6a" style="" class=""/></g></g></svg>
